<svg width="35" height="33" viewBox="0 0 35 33" fill="none" xmlns="http://www.w3.org/2000/svg">
<rect width="35" height="33" fill="url(#paint0_linear_15_62)"/>
<path d="M23.73 4.30376L25.4421 8.46038C25.5116 8.62875 25.5453 8.80839 25.5411 8.98903C25.537 9.16966 25.4951 9.34776 25.4179 9.51312C25.3407 9.67849 25.2297 9.82789 25.0912 9.95279C24.9527 10.0777 24.7895 10.1756 24.6109 10.241L20.2023 11.8553M11.1067 28.2026L10.1121 23.8439C10.0307 23.4874 10.1029 23.1151 10.3126 22.8087C10.5224 22.5024 10.8526 22.2872 11.2307 22.2104L15.8536 21.2726" stroke="url(#paint1_linear_15_62)" stroke-width="2.5" stroke-linecap="round"/>
<path fill-rule="evenodd" clip-rule="evenodd" d="M24.6677 10.8185C25.7396 10.3194 26.0677 9.0145 25.1752 8.26513C23.4406 6.80872 21.2845 5.87361 18.9829 5.57955C16.6813 5.28549 14.3389 5.64586 12.2559 6.61452C10.1728 7.58318 8.44375 9.11603 7.29021 11.0168C6.13666 12.9175 5.6111 15.0997 5.78083 17.2838C5.86833 18.4085 7.16625 18.9571 8.23812 18.4594C9.00229 18.1033 9.39896 17.3099 9.3975 16.5069C9.39322 15.0918 9.81013 13.704 10.6008 12.5012C11.3915 11.2984 12.5243 10.3289 13.8703 9.70296C15.2163 9.077 16.7216 8.81968 18.215 8.96024C19.7085 9.10081 21.1301 9.63363 22.3183 10.4981C22.995 10.989 23.9035 11.1733 24.6677 10.8185ZM10.1719 22.1568C10.9375 21.802 11.846 21.9876 12.5227 22.4785C13.7109 23.343 15.1326 23.8758 16.626 24.0164C18.1194 24.157 19.6247 23.8996 20.9707 23.2737C22.3168 22.6477 23.4495 21.6782 24.2402 20.4754C25.0309 19.2727 25.4478 17.8848 25.4435 16.4698C25.4421 15.6668 25.8373 14.8734 26.6029 14.5173C27.6748 14.0195 28.9727 14.5681 29.0602 15.6915C29.2296 17.8755 28.7038 20.0574 27.5502 21.9579C26.3965 23.8584 24.6675 25.3911 22.5844 26.3596C20.5014 27.328 18.1592 27.6883 15.8578 27.3942C13.5563 27.1001 11.4003 26.165 9.66583 24.7087C8.77333 23.9608 9.10146 22.6559 10.1733 22.1581L10.1719 22.1568Z" fill="url(#paint2_linear_15_62)"/>
<defs>
<linearGradient id="paint0_linear_15_62" x1="17.5" y1="0" x2="17.5" y2="33" gradientUnits="userSpaceOnUse">
<stop stop-color="white" stop-opacity="0"/>
<stop offset="1" stop-color="white" stop-opacity="0"/>
</linearGradient>
<linearGradient id="paint1_linear_15_62" x1="17.8105" y1="4.30376" x2="17.8105" y2="28.2026" gradientUnits="userSpaceOnUse">
<stop stop-color="#BF00FF"/>
<stop offset="1" stop-color="#0000B8"/>
</linearGradient>
<linearGradient id="paint2_linear_15_62" x1="17.4205" y1="5.47992" x2="17.4205" y2="27.4939" gradientUnits="userSpaceOnUse">
<stop stop-color="#BF00FF"/>
<stop offset="1" stop-color="#0000B8"/>
</linearGradient>
</defs>
</svg>
