<svg width="35" height="35" viewBox="0 0 35 35" fill="none" xmlns="http://www.w3.org/2000/svg">
<rect width="35" height="35" fill="url(#paint0_linear_15_60)"/>
<path fill-rule="evenodd" clip-rule="evenodd" d="M11.6725 10.0217C11.9119 10.2711 12.0424 10.6055 12.0353 10.9512C12.0282 11.2969 11.884 11.6256 11.6346 11.865L6.81333 16.4937C6.68655 16.6154 6.58568 16.7615 6.51677 16.9231C6.44786 17.0848 6.41234 17.2587 6.41234 17.4344C6.41234 17.6101 6.44786 17.784 6.51677 17.9456C6.58568 18.1073 6.68655 18.2533 6.81333 18.375L11.6346 23.0037C11.884 23.2432 12.0282 23.5719 12.0353 23.9176C12.0424 24.2633 11.9119 24.5976 11.6725 24.8471L11.2204 25.3181C10.9808 25.5674 10.652 25.7113 10.3063 25.7181C9.96061 25.7249 9.62636 25.5942 9.37708 25.3546L2.80583 19.0473C2.58918 18.8382 2.41687 18.5877 2.29919 18.3105C2.1815 18.0334 2.12085 17.7354 2.12085 17.4344C2.12085 17.1333 2.1815 16.8353 2.29919 16.5582C2.41687 16.2811 2.58918 16.0305 2.80583 15.8215L9.37708 9.51417C9.62636 9.27457 9.96061 9.14382 10.3063 9.15065C10.652 9.15749 10.9808 9.30136 11.2204 9.55062L11.6725 10.0217ZM23.6687 9.55208C23.9082 9.30262 24.2369 9.15848 24.5826 9.15137C24.9282 9.14426 25.2626 9.27476 25.5121 9.51417L32.0833 15.8215C32.9962 16.6979 32.9962 18.1694 32.0833 19.0473L25.5121 25.3546C25.2628 25.5942 24.9285 25.7249 24.5829 25.7181C24.2372 25.7113 23.9084 25.5674 23.6687 25.3181L23.2167 24.8471C22.9773 24.5976 22.8468 24.2633 22.8539 23.9176C22.861 23.5719 23.0051 23.2432 23.2546 23.0037L28.0773 18.375C28.2041 18.2533 28.3049 18.1073 28.3738 17.9456C28.4427 17.784 28.4783 17.6101 28.4783 17.4344C28.4783 17.2587 28.4427 17.0848 28.3738 16.9231C28.3049 16.7615 28.2041 16.6154 28.0773 16.4937L23.2546 11.865C23.0053 11.6254 22.8614 11.2966 22.8546 10.9509C22.8478 10.6052 22.9785 10.2709 23.2181 10.0217L23.6687 9.55062V9.55208ZM18.69 5.63937C18.7316 5.4732 18.8055 5.31686 18.9076 5.17927C19.0096 5.04169 19.1378 4.92556 19.2847 4.83753C19.4317 4.7495 19.5945 4.69129 19.764 4.66622C19.9334 4.64116 20.1061 4.64973 20.2723 4.69146L20.9037 4.84896C21.6037 5.02396 22.0267 5.73125 21.8531 6.43125L16.4792 27.9242C16.4377 28.0903 16.3639 28.2467 16.2621 28.3843C16.1602 28.5219 16.0322 28.6381 15.8854 28.7263C15.7386 28.8145 15.5759 28.8729 15.4065 28.8981C15.2371 28.9234 15.0645 28.915 14.8983 28.8735L14.2654 28.716C14.0992 28.6744 13.9429 28.6005 13.8053 28.4985C13.6677 28.3964 13.5516 28.2683 13.4636 28.1213C13.3755 27.9744 13.3173 27.8115 13.2923 27.6421C13.2672 27.4726 13.2758 27.2999 13.3175 27.1338L18.69 5.63937Z" fill="url(#paint1_linear_15_60)"/>
<defs>
<linearGradient id="paint0_linear_15_60" x1="17.5" y1="0" x2="17.5" y2="35" gradientUnits="userSpaceOnUse">
<stop stop-color="white" stop-opacity="0"/>
<stop offset="1" stop-color="white" stop-opacity="0"/>
</linearGradient>
<linearGradient id="paint1_linear_15_60" x1="17.4444" y1="4.65219" x2="17.4444" y2="28.9124" gradientUnits="userSpaceOnUse">
<stop stop-color="#BF00FF"/>
<stop offset="1" stop-color="#0000B8"/>
</linearGradient>
</defs>
</svg>
