<svg width="35" height="35" viewBox="0 0 35 35" fill="none" xmlns="http://www.w3.org/2000/svg">
<rect width="35" height="35" fill="url(#paint0_linear_15_56)"/>
<path fill-rule="evenodd" clip-rule="evenodd" d="M9.50255 18.2481C9.41076 18.169 9.33755 18.0706 9.28814 17.96C9.23873 17.8493 9.21434 17.7291 9.21671 17.6079C9.21908 17.4868 9.24814 17.3676 9.30184 17.259C9.35553 17.1503 9.43253 17.0549 9.52734 16.9794L12.6423 14.5002C12.7395 14.4231 12.818 14.325 12.872 14.2132C12.9259 14.1015 12.954 13.979 12.954 13.8549C12.954 13.7308 12.9259 13.6083 12.872 13.4966C12.818 13.3849 12.7395 13.2867 12.6423 13.2096L9.52734 10.7304C9.43253 10.655 9.35553 10.5595 9.30184 10.4508C9.24814 10.3422 9.21908 10.223 9.21671 10.1019C9.21434 9.98072 9.23873 9.86052 9.28814 9.74986C9.33755 9.6392 9.41076 9.5408 9.50255 9.46168L9.80734 9.19772C9.9527 9.07175 10.1375 9.0006 10.3299 8.99661C10.5222 8.99261 10.7098 9.05602 10.8603 9.17584L15.5634 12.9208C16.2007 13.4283 16.2007 14.28 15.5634 14.7875L10.8603 18.5325C10.7098 18.6523 10.5222 18.7157 10.3299 18.7117C10.1375 18.7078 9.9527 18.6366 9.80734 18.5106L9.50255 18.2481Z" fill="url(#paint1_linear_15_56)"/>
<path d="M5.10413 8.4102C5.10413 7.53338 5.45244 6.69248 6.07244 6.07247C6.69245 5.45247 7.53335 5.10416 8.41017 5.10416H26.5898C27.4666 5.10416 28.3075 5.45247 28.9275 6.07247C29.5475 6.69248 29.8958 7.53338 29.8958 8.4102V26.5898C29.8958 27.4666 29.5475 28.3075 28.9275 28.9275C28.3075 29.5475 27.4666 29.8958 26.5898 29.8958H8.41017C7.53335 29.8958 6.69245 29.5475 6.07244 28.9275C5.45244 28.3075 5.10413 27.4666 5.10413 26.5898V8.4102Z" stroke="url(#paint2_linear_15_56)" stroke-width="1.7"/>
<path d="M14.5834 19.4935C14.5834 19.0371 14.9538 18.6667 15.4102 18.6667H22.0209C22.4773 18.6667 22.8477 19.0371 22.8477 19.4935V20.3189C22.8477 20.5382 22.7606 20.7486 22.6056 20.9036C22.4505 21.0587 22.2402 21.1458 22.0209 21.1458H15.4102C15.1909 21.1458 14.9806 21.0587 14.8256 20.9036C14.6705 20.7486 14.5834 20.5382 14.5834 20.3189V19.4935Z" fill="url(#paint3_linear_15_56)"/>
<defs>
<linearGradient id="paint0_linear_15_56" x1="17.5" y1="0" x2="17.5" y2="35" gradientUnits="userSpaceOnUse">
<stop stop-color="white" stop-opacity="0"/>
<stop offset="1" stop-color="white" stop-opacity="0"/>
</linearGradient>
<linearGradient id="paint1_linear_15_56" x1="12.629" y1="8.99643" x2="12.629" y2="18.7119" gradientUnits="userSpaceOnUse">
<stop stop-color="#BF00FF"/>
<stop offset="1" stop-color="#0000B8"/>
</linearGradient>
<linearGradient id="paint2_linear_15_56" x1="17.5" y1="5.10416" x2="17.5" y2="29.8958" gradientUnits="userSpaceOnUse">
<stop stop-color="#BF00FF"/>
<stop offset="1" stop-color="#0000B8"/>
</linearGradient>
<linearGradient id="paint3_linear_15_56" x1="18.7156" y1="18.6667" x2="18.7156" y2="21.1458" gradientUnits="userSpaceOnUse">
<stop stop-color="#BF00FF"/>
<stop offset="1" stop-color="#0000B8"/>
</linearGradient>
</defs>
</svg>
