<svg width="597" height="131" viewBox="0 0 597 131" fill="none" xmlns="http://www.w3.org/2000/svg">
<path d="M30.9595 38.958V47H9.0376V38.958H30.9595ZM12.7607 3.63281V47H2.30615V3.63281H12.7607ZM50.4985 47.5957C47.8774 47.5957 45.5343 47.1886 43.4692 46.3745C41.4041 45.5405 39.6567 44.3988 38.2271 42.9492C36.8172 41.4997 35.735 39.8317 34.9805 37.9453C34.2458 36.0589 33.8784 34.0633 33.8784 31.9585V30.8267C33.8784 28.4637 34.2061 26.2795 34.8613 24.2739C35.5166 22.2485 36.4896 20.4813 37.7803 18.9722C39.071 17.4631 40.6893 16.2915 42.6353 15.4575C44.5812 14.6037 46.8449 14.1768 49.4263 14.1768C51.7098 14.1768 53.755 14.5441 55.562 15.2788C57.369 16.0135 58.8979 17.0659 60.1489 18.436C61.4198 19.8062 62.3828 21.4642 63.0381 23.4102C63.7132 25.3561 64.0508 27.5404 64.0508 29.9629V34.0435H37.7207V27.7588H54.2515V26.9844C54.2713 25.9121 54.0827 24.9987 53.6855 24.2441C53.3083 23.4896 52.7523 22.9137 52.0176 22.5166C51.2829 22.1195 50.3893 21.9209 49.3369 21.9209C48.2448 21.9209 47.3413 22.1592 46.6265 22.6357C45.9315 23.1123 45.3854 23.7676 44.9883 24.6016C44.611 25.4157 44.3429 26.3589 44.1841 27.4312C44.0252 28.5034 43.9458 29.6353 43.9458 30.8267V31.9585C43.9458 33.1499 44.1047 34.2321 44.4224 35.2051C44.7599 36.1781 45.2365 37.012 45.8521 37.707C46.4875 38.3822 47.242 38.9084 48.1157 39.2856C49.0093 39.6629 50.022 39.8516 51.1538 39.8516C52.5239 39.8516 53.8742 39.5934 55.2046 39.0771C56.535 38.5609 57.6768 37.707 58.6299 36.5156L63.187 41.9365C62.5317 42.8698 61.5985 43.7733 60.3872 44.647C59.1958 45.5207 57.7661 46.2355 56.0981 46.7915C54.4302 47.3276 52.5636 47.5957 50.4985 47.5957ZM93.8062 43.0684L102.444 3.63281H107.597L110.396 6.99854L101.193 47H95.5039L93.8062 43.0684ZM91.5127 3.63281L98.8101 43.3662L96.9336 47H90.3511L81.1475 3.63281H91.5127ZM115.132 43.1577L122.37 3.63281H132.706L123.502 47H116.949L115.132 43.1577ZM111.32 3.63281L120.166 43.3066L118.379 47H112.69L103.278 6.93896L106.197 3.63281H111.32ZM150.994 47.5957C148.373 47.5957 146.029 47.1886 143.964 46.3745C141.899 45.5405 140.152 44.3988 138.722 42.9492C137.312 41.4997 136.23 39.8317 135.476 37.9453C134.741 36.0589 134.374 34.0633 134.374 31.9585V30.8267C134.374 28.4637 134.701 26.2795 135.356 24.2739C136.012 22.2485 136.985 20.4813 138.275 18.9722C139.566 17.4631 141.184 16.2915 143.13 15.4575C145.076 14.6037 147.34 14.1768 149.921 14.1768C152.205 14.1768 154.25 14.5441 156.057 15.2788C157.864 16.0135 159.393 17.0659 160.644 18.436C161.915 19.8062 162.878 21.4642 163.533 23.4102C164.208 25.3561 164.546 27.5404 164.546 29.9629V34.0435H138.216V27.7588H154.747V26.9844C154.766 25.9121 154.578 24.9987 154.181 24.2441C153.803 23.4896 153.247 22.9137 152.513 22.5166C151.778 22.1195 150.884 21.9209 149.832 21.9209C148.74 21.9209 147.836 22.1592 147.122 22.6357C146.427 23.1123 145.881 23.7676 145.483 24.6016C145.106 25.4157 144.838 26.3589 144.679 27.4312C144.52 28.5034 144.441 29.6353 144.441 30.8267V31.9585C144.441 33.1499 144.6 34.2321 144.917 35.2051C145.255 36.1781 145.732 37.012 146.347 37.707C146.983 38.3822 147.737 38.9084 148.611 39.2856C149.504 39.6629 150.517 39.8516 151.649 39.8516C153.019 39.8516 154.369 39.5934 155.7 39.0771C157.03 38.5609 158.172 37.707 159.125 36.5156L163.682 41.9365C163.027 42.8698 162.094 43.7733 160.882 44.647C159.691 45.5207 158.261 46.2355 156.593 46.7915C154.925 47.3276 153.059 47.5957 150.994 47.5957ZM168.716 1.25H178.753V39.0771L177.711 47H168.716V1.25ZM198.531 30.5288V31.1543C198.531 33.5967 198.283 35.8206 197.786 37.8262C197.29 39.8317 196.525 41.5692 195.493 43.0386C194.46 44.4881 193.16 45.61 191.591 46.4043C190.022 47.1986 188.166 47.5957 186.021 47.5957C184.075 47.5957 182.407 47.1787 181.017 46.3447C179.627 45.4909 178.465 44.3193 177.532 42.8301C176.599 41.321 175.844 39.5835 175.269 37.6177C174.693 35.632 174.236 33.5073 173.898 31.2437V30.499C174.236 28.2552 174.693 26.1504 175.269 24.1846C175.844 22.1989 176.599 20.4614 177.532 18.9722C178.465 17.4631 179.617 16.2915 180.987 15.4575C182.377 14.6037 184.035 14.1768 185.961 14.1768C188.126 14.1768 189.992 14.5838 191.561 15.3979C193.15 16.2121 194.46 17.3538 195.493 18.8232C196.525 20.2926 197.29 22.0202 197.786 24.0059C198.283 25.9915 198.531 28.1659 198.531 30.5288ZM188.493 31.1543V30.5288C188.493 29.3573 188.424 28.2552 188.285 27.2227C188.146 26.1901 187.897 25.2767 187.54 24.4824C187.183 23.6882 186.676 23.0627 186.021 22.606C185.366 22.1493 184.512 21.9209 183.459 21.9209C182.387 21.9209 181.484 22.0996 180.749 22.457C180.034 22.8145 179.458 23.3307 179.021 24.0059C178.604 24.6611 178.307 25.4753 178.128 26.4482C177.949 27.4014 177.87 28.4836 177.89 29.6948V32.0479C177.85 33.696 177.999 35.1058 178.336 36.2773C178.674 37.4489 179.26 38.3424 180.094 38.958C180.928 39.5736 182.069 39.8813 183.519 39.8813C184.591 39.8813 185.455 39.6729 186.11 39.2559C186.785 38.8389 187.292 38.2432 187.629 37.4688C187.967 36.6943 188.195 35.771 188.314 34.6987C188.434 33.6265 188.493 32.445 188.493 31.1543ZM236.715 39.6133V1.25H246.812V47H237.758L236.715 39.6133ZM216.938 31.2734V30.6479C216.938 28.2056 217.206 25.9816 217.742 23.9761C218.278 21.9507 219.073 20.2132 220.125 18.7637C221.177 17.2943 222.488 16.1624 224.057 15.3682C225.625 14.5739 227.432 14.1768 229.478 14.1768C231.304 14.1768 232.903 14.6037 234.273 15.4575C235.643 16.2915 236.815 17.4631 237.788 18.9722C238.761 20.4813 239.555 22.2485 240.17 24.2739C240.786 26.2795 241.253 28.4438 241.57 30.7671V31.5117C241.253 33.696 240.786 35.7611 240.17 37.707C239.555 39.6331 238.761 41.3408 237.788 42.8301C236.815 44.3193 235.633 45.4909 234.243 46.3447C232.873 47.1787 231.265 47.5957 229.418 47.5957C227.373 47.5957 225.566 47.1886 223.997 46.3745C222.448 45.5604 221.148 44.4186 220.095 42.9492C219.063 41.4798 218.278 39.7523 217.742 37.7666C217.206 35.7809 216.938 33.6165 216.938 31.2734ZM226.976 30.6479V31.2734C226.976 32.4847 227.055 33.6066 227.214 34.6392C227.373 35.6717 227.641 36.5851 228.018 37.3794C228.415 38.1538 228.931 38.7594 229.567 39.1963C230.222 39.6331 231.026 39.8516 231.979 39.8516C233.27 39.8516 234.333 39.5438 235.167 38.9282C236.02 38.3127 236.646 37.439 237.043 36.3071C237.46 35.1753 237.639 33.8449 237.579 32.3159V29.9629C237.619 28.6523 237.529 27.5007 237.311 26.5078C237.093 25.4951 236.745 24.6512 236.269 23.9761C235.812 23.3009 235.226 22.7946 234.511 22.457C233.816 22.0996 232.992 21.9209 232.039 21.9209C231.106 21.9209 230.312 22.1393 229.656 22.5762C229.021 23.013 228.505 23.6286 228.107 24.4229C227.71 25.1973 227.422 26.1206 227.244 27.1929C227.065 28.2453 226.976 29.397 226.976 30.6479ZM268.109 47.5957C265.488 47.5957 263.145 47.1886 261.08 46.3745C259.014 45.5405 257.267 44.3988 255.837 42.9492C254.428 41.4997 253.345 39.8317 252.591 37.9453C251.856 36.0589 251.489 34.0633 251.489 31.9585V30.8267C251.489 28.4637 251.816 26.2795 252.472 24.2739C253.127 22.2485 254.1 20.4813 255.391 18.9722C256.681 17.4631 258.3 16.2915 260.246 15.4575C262.192 14.6037 264.455 14.1768 267.037 14.1768C269.32 14.1768 271.365 14.5441 273.172 15.2788C274.979 16.0135 276.508 17.0659 277.759 18.436C279.03 19.8062 279.993 21.4642 280.648 23.4102C281.324 25.3561 281.661 27.5404 281.661 29.9629V34.0435H255.331V27.7588H271.862V26.9844C271.882 25.9121 271.693 24.9987 271.296 24.2441C270.919 23.4896 270.363 22.9137 269.628 22.5166C268.893 22.1195 268 21.9209 266.947 21.9209C265.855 21.9209 264.952 22.1592 264.237 22.6357C263.542 23.1123 262.996 23.7676 262.599 24.6016C262.221 25.4157 261.953 26.3589 261.794 27.4312C261.636 28.5034 261.556 29.6353 261.556 30.8267V31.9585C261.556 33.1499 261.715 34.2321 262.033 35.2051C262.37 36.1781 262.847 37.012 263.462 37.707C264.098 38.3822 264.852 38.9084 265.726 39.2856C266.62 39.6629 267.632 39.8516 268.764 39.8516C270.134 39.8516 271.485 39.5934 272.815 39.0771C274.145 38.5609 275.287 37.707 276.24 36.5156L280.797 41.9365C280.142 42.8698 279.209 43.7733 277.998 44.647C276.806 45.5207 275.376 46.2355 273.708 46.7915C272.041 47.3276 270.174 47.5957 268.109 47.5957ZM296.941 40.1196L303.285 14.7725H313.859L303.315 47H297.06L296.941 40.1196ZM293.188 14.7725L299.443 40.1196L299.383 47H293.099L282.584 14.7725H293.188ZM327.441 14.7725V47H317.374V14.7725H327.441ZM316.778 6.4624C316.778 5.03271 317.294 3.86117 318.327 2.94775C319.359 2.03434 320.7 1.57764 322.348 1.57764C323.996 1.57764 325.336 2.03434 326.369 2.94775C327.401 3.86117 327.917 5.03271 327.917 6.4624C327.917 7.89209 327.401 9.06364 326.369 9.97705C325.336 10.8905 323.996 11.3472 322.348 11.3472C320.7 11.3472 319.359 10.8905 318.327 9.97705C317.294 9.06364 316.778 7.89209 316.778 6.4624ZM349.244 47.5957C346.623 47.5957 344.279 47.1886 342.214 46.3745C340.149 45.5405 338.402 44.3988 336.972 42.9492C335.562 41.4997 334.48 39.8317 333.726 37.9453C332.991 36.0589 332.624 34.0633 332.624 31.9585V30.8267C332.624 28.4637 332.951 26.2795 333.606 24.2739C334.262 22.2485 335.235 20.4813 336.525 18.9722C337.816 17.4631 339.434 16.2915 341.38 15.4575C343.326 14.6037 345.59 14.1768 348.171 14.1768C350.455 14.1768 352.5 14.5441 354.307 15.2788C356.114 16.0135 357.643 17.0659 358.894 18.436C360.165 19.8062 361.128 21.4642 361.783 23.4102C362.458 25.3561 362.796 27.5404 362.796 29.9629V34.0435H336.466V27.7588H352.997V26.9844C353.016 25.9121 352.828 24.9987 352.431 24.2441C352.053 23.4896 351.497 22.9137 350.763 22.5166C350.028 22.1195 349.134 21.9209 348.082 21.9209C346.99 21.9209 346.086 22.1592 345.372 22.6357C344.677 23.1123 344.131 23.7676 343.733 24.6016C343.356 25.4157 343.088 26.3589 342.929 27.4312C342.77 28.5034 342.691 29.6353 342.691 30.8267V31.9585C342.691 33.1499 342.85 34.2321 343.167 35.2051C343.505 36.1781 343.982 37.012 344.597 37.707C345.233 38.3822 345.987 38.9084 346.861 39.2856C347.754 39.6629 348.767 39.8516 349.899 39.8516C351.269 39.8516 352.619 39.5934 353.95 39.0771C355.28 38.5609 356.422 37.707 357.375 36.5156L361.932 41.9365C361.277 42.8698 360.344 43.7733 359.132 44.647C357.941 45.5207 356.511 46.2355 354.843 46.7915C353.175 47.3276 351.309 47.5957 349.244 47.5957ZM376.735 21.6528V47H366.698V14.7725H376.11L376.735 21.6528ZM375.544 29.7842L373.191 29.8438C373.191 27.3815 373.489 25.1873 374.084 23.2612C374.68 21.3153 375.524 19.6672 376.616 18.3169C377.708 16.9666 379.009 15.944 380.518 15.249C382.047 14.5342 383.745 14.1768 385.611 14.1768C387.101 14.1768 388.461 14.3952 389.692 14.832C390.943 15.2689 392.015 15.9738 392.909 16.9468C393.822 17.9198 394.517 19.2104 394.994 20.8188C395.49 22.4074 395.738 24.3732 395.738 26.7163V47H385.641V26.6865C385.641 25.3958 385.462 24.4129 385.105 23.7378C384.748 23.0428 384.231 22.5662 383.556 22.3081C382.881 22.05 382.057 21.9209 381.084 21.9209C380.051 21.9209 379.178 22.1195 378.463 22.5166C377.748 22.9137 377.172 23.4697 376.735 24.1846C376.318 24.8796 376.011 25.7036 375.812 26.6567C375.633 27.6099 375.544 28.6523 375.544 29.7842ZM418.196 37.9453C418.196 37.3893 418.008 36.9128 417.63 36.5156C417.273 36.0986 416.638 35.7214 415.724 35.3838C414.811 35.0264 413.53 34.6689 411.882 34.3115C410.313 33.974 408.834 33.5272 407.444 32.9712C406.074 32.4152 404.872 31.7401 403.84 30.9458C402.807 30.1515 401.993 29.2083 401.397 28.1162C400.822 27.0241 400.534 25.7731 400.534 24.3633C400.534 22.9932 400.822 21.7025 401.397 20.4912C401.993 19.2601 402.857 18.1779 403.989 17.2446C405.14 16.2915 406.54 15.5469 408.188 15.0107C409.837 14.4548 411.713 14.1768 413.818 14.1768C416.717 14.1768 419.219 14.6235 421.324 15.5171C423.429 16.3908 425.047 17.6219 426.179 19.2104C427.33 20.7791 427.906 22.596 427.906 24.6611H417.869C417.869 23.847 417.73 23.152 417.452 22.5762C417.194 22.0003 416.767 21.5635 416.171 21.2656C415.575 20.9479 414.781 20.7891 413.788 20.7891C413.093 20.7891 412.458 20.9181 411.882 21.1763C411.326 21.4344 410.879 21.7918 410.542 22.2485C410.204 22.7052 410.035 23.2414 410.035 23.8569C410.035 24.2938 410.134 24.6909 410.333 25.0483C410.551 25.3859 410.879 25.7036 411.316 26.0015C411.753 26.2795 412.309 26.5376 412.984 26.7759C413.659 26.9943 414.473 27.1929 415.426 27.3716C417.591 27.7687 419.616 28.3346 421.502 29.0693C423.389 29.804 424.918 30.8465 426.089 32.1968C427.281 33.547 427.876 35.3639 427.876 37.6475C427.876 39.0771 427.549 40.3976 426.894 41.6089C426.238 42.8003 425.295 43.8527 424.064 44.7661C422.833 45.6597 421.354 46.3547 419.626 46.8511C417.898 47.3475 415.952 47.5957 413.788 47.5957C410.71 47.5957 408.109 47.0496 405.984 45.9575C403.86 44.8455 402.251 43.4556 401.159 41.7876C400.087 40.0998 399.551 38.3921 399.551 36.6646H408.903C408.943 37.6574 409.181 38.4715 409.618 39.1069C410.075 39.7424 410.681 40.209 411.435 40.5068C412.19 40.8047 413.063 40.9536 414.056 40.9536C414.97 40.9536 415.724 40.8245 416.32 40.5664C416.935 40.3083 417.402 39.9608 417.72 39.5239C418.037 39.0672 418.196 38.541 418.196 37.9453ZM460.074 47H449.977V12.1514C449.977 9.64941 450.483 7.5446 451.496 5.83691C452.509 4.12923 453.938 2.83854 455.785 1.96484C457.632 1.07129 459.816 0.624512 462.338 0.624512C463.212 0.624512 464.036 0.684082 464.81 0.803223C465.584 0.922363 466.339 1.07129 467.074 1.25L467.104 8.63672C466.746 8.53743 466.379 8.46794 466.001 8.42822C465.624 8.38851 465.158 8.36865 464.602 8.36865C463.629 8.36865 462.805 8.51758 462.129 8.81543C461.454 9.09342 460.938 9.52035 460.581 10.0962C460.243 10.6522 460.074 11.3372 460.074 12.1514V47ZM466.329 14.7725V21.7422H445.331V14.7725H466.329ZM486.672 38.8984V25.6143C486.672 24.7008 486.543 23.9165 486.285 23.2612C486.027 22.606 485.62 22.0996 485.064 21.7422C484.508 21.3649 483.763 21.1763 482.83 21.1763C482.076 21.1763 481.43 21.3053 480.894 21.5635C480.358 21.8216 479.951 22.2088 479.673 22.7251C479.395 23.2414 479.256 23.8966 479.256 24.6909H469.218C469.218 23.2017 469.546 21.8216 470.201 20.5508C470.876 19.2601 471.829 18.1382 473.061 17.1851C474.312 16.2319 475.801 15.4972 477.528 14.981C479.276 14.4448 481.222 14.1768 483.366 14.1768C485.928 14.1768 488.211 14.6037 490.217 15.4575C492.242 16.3114 493.841 17.5921 495.012 19.2998C496.184 20.9876 496.77 23.1123 496.77 25.6738V38.8687C496.77 40.9735 496.889 42.5719 497.127 43.6641C497.365 44.7363 497.703 45.6795 498.14 46.4937V47H488.072C487.596 46.0072 487.238 44.7959 487 43.3662C486.782 41.9167 486.672 40.4274 486.672 38.8984ZM487.894 27.312L487.953 32.6733H483.515C482.582 32.6733 481.788 32.8024 481.132 33.0605C480.497 33.3187 479.981 33.6761 479.583 34.1328C479.206 34.5697 478.928 35.0661 478.75 35.6221C478.591 36.1781 478.511 36.7638 478.511 37.3794C478.511 37.9751 478.65 38.5112 478.928 38.9878C479.226 39.4445 479.623 39.8019 480.12 40.0601C480.616 40.3182 481.172 40.4473 481.788 40.4473C482.9 40.4473 483.843 40.2388 484.617 39.8218C485.411 39.3849 486.017 38.8587 486.434 38.2432C486.851 37.6276 487.06 37.0518 487.06 36.5156L489.264 40.626C488.867 41.4202 488.41 42.2244 487.894 43.0386C487.397 43.8527 486.772 44.6073 486.017 45.3022C485.282 45.9774 484.379 46.5334 483.307 46.9702C482.234 47.3872 480.934 47.5957 479.405 47.5957C477.419 47.5957 475.592 47.1886 473.924 46.3745C472.276 45.5604 470.956 44.4285 469.963 42.979C468.97 41.5096 468.474 39.8218 468.474 37.9155C468.474 36.2476 468.771 34.7583 469.367 33.4478C469.983 32.1372 470.906 31.0252 472.137 30.1118C473.368 29.1984 474.937 28.5034 476.843 28.0269C478.75 27.5503 480.993 27.312 483.575 27.312H487.894ZM515.951 39.8516C516.884 39.8516 517.679 39.6828 518.334 39.3452C519.009 38.9878 519.515 38.4914 519.853 37.856C520.21 37.2007 520.379 36.4163 520.359 35.5029H529.801C529.821 37.9255 529.225 40.0501 528.014 41.877C526.823 43.6839 525.194 45.0938 523.129 46.1064C521.084 47.0993 518.771 47.5957 516.189 47.5957C513.668 47.5957 511.464 47.1886 509.577 46.3745C507.691 45.5405 506.112 44.3888 504.841 42.9194C503.59 41.4302 502.647 39.6927 502.012 37.707C501.396 35.7214 501.088 33.5669 501.088 31.2437V30.5586C501.088 28.2354 501.396 26.0809 502.012 24.0952C502.647 22.0897 503.59 20.3522 504.841 18.8828C506.112 17.3936 507.681 16.2419 509.547 15.4277C511.434 14.5938 513.628 14.1768 516.13 14.1768C518.811 14.1768 521.174 14.6831 523.219 15.6958C525.284 16.7085 526.902 18.1779 528.074 20.104C529.245 22.0301 529.821 24.3633 529.801 27.1035H520.359C520.379 26.1305 520.23 25.2568 519.913 24.4824C519.595 23.708 519.098 23.0924 518.423 22.6357C517.768 22.1592 516.924 21.9209 515.892 21.9209C514.859 21.9209 514.025 22.1493 513.39 22.606C512.754 23.0627 512.268 23.6981 511.93 24.5122C511.612 25.3065 511.394 26.2199 511.275 27.2524C511.176 28.285 511.126 29.387 511.126 30.5586V31.2437C511.126 32.4351 511.176 33.557 511.275 34.6094C511.394 35.6419 511.622 36.5553 511.96 37.3496C512.298 38.124 512.784 38.7396 513.419 39.1963C514.055 39.6331 514.899 39.8516 515.951 39.8516ZM544.694 14.7725V47H534.626V14.7725H544.694ZM534.031 6.4624C534.031 5.03271 534.547 3.86117 535.58 2.94775C536.612 2.03434 537.952 1.57764 539.601 1.57764C541.249 1.57764 542.589 2.03434 543.622 2.94775C544.654 3.86117 545.17 5.03271 545.17 6.4624C545.17 7.89209 544.654 9.06364 543.622 9.97705C542.589 10.8905 541.249 11.3472 539.601 11.3472C537.952 11.3472 536.612 10.8905 535.58 9.97705C534.547 9.06364 534.031 7.89209 534.031 6.4624ZM561.493 1.25V47H551.425V1.25H561.493ZM583.295 47.5957C580.674 47.5957 578.331 47.1886 576.266 46.3745C574.201 45.5405 572.454 44.3988 571.024 42.9492C569.614 41.4997 568.532 39.8317 567.777 37.9453C567.043 36.0589 566.675 34.0633 566.675 31.9585V30.8267C566.675 28.4637 567.003 26.2795 567.658 24.2739C568.313 22.2485 569.286 20.4813 570.577 18.9722C571.868 17.4631 573.486 16.2915 575.432 15.4575C577.378 14.6037 579.642 14.1768 582.223 14.1768C584.507 14.1768 586.552 14.5441 588.359 15.2788C590.166 16.0135 591.695 17.0659 592.946 18.436C594.217 19.8062 595.18 21.4642 595.835 23.4102C596.51 25.3561 596.848 27.5404 596.848 29.9629V34.0435H570.518V27.7588H587.048V26.9844C587.068 25.9121 586.88 24.9987 586.482 24.2441C586.105 23.4896 585.549 22.9137 584.814 22.5166C584.08 22.1195 583.186 21.9209 582.134 21.9209C581.042 21.9209 580.138 22.1592 579.423 22.6357C578.728 23.1123 578.182 23.7676 577.785 24.6016C577.408 25.4157 577.14 26.3589 576.981 27.4312C576.822 28.5034 576.743 29.6353 576.743 30.8267V31.9585C576.743 33.1499 576.902 34.2321 577.219 35.2051C577.557 36.1781 578.033 37.012 578.649 37.707C579.284 38.3822 580.039 38.9084 580.913 39.2856C581.806 39.6629 582.819 39.8516 583.951 39.8516C585.321 39.8516 586.671 39.5934 588.001 39.0771C589.332 38.5609 590.474 37.707 591.427 36.5156L595.984 41.9365C595.329 42.8698 594.395 43.7733 593.184 44.647C591.993 45.5207 590.563 46.2355 588.895 46.7915C587.227 47.3276 585.361 47.5957 583.295 47.5957ZM18.5688 109.898V96.6143C18.5688 95.7008 18.4398 94.9165 18.1816 94.2612C17.9235 93.606 17.5164 93.0996 16.9604 92.7422C16.4045 92.3649 15.6598 92.1763 14.7266 92.1763C13.972 92.1763 13.3267 92.3053 12.7905 92.5635C12.2544 92.8216 11.8473 93.2088 11.5693 93.7251C11.2913 94.2414 11.1523 94.8966 11.1523 95.6909H1.11475C1.11475 94.2017 1.44238 92.8216 2.09766 91.5508C2.77279 90.2601 3.72591 89.1382 4.95703 88.1851C6.20801 87.2319 7.69727 86.4972 9.4248 85.981C11.1722 85.4448 13.1182 85.1768 15.2627 85.1768C17.8242 85.1768 20.1077 85.6037 22.1133 86.4575C24.1387 87.3114 25.7371 88.5921 26.9087 90.2998C28.0802 91.9876 28.666 94.1123 28.666 96.6738V109.869C28.666 111.973 28.7852 113.572 29.0234 114.664C29.2617 115.736 29.5993 116.68 30.0361 117.494V118H19.9688C19.4922 117.007 19.1348 115.796 18.8965 114.366C18.6781 112.917 18.5688 111.427 18.5688 109.898ZM19.79 98.312L19.8496 103.673H15.4116C14.4784 103.673 13.6841 103.802 13.0288 104.061C12.3934 104.319 11.8771 104.676 11.48 105.133C11.1027 105.57 10.8247 106.066 10.646 106.622C10.4871 107.178 10.4077 107.764 10.4077 108.379C10.4077 108.975 10.5467 109.511 10.8247 109.988C11.1226 110.444 11.5197 110.802 12.0161 111.06C12.5125 111.318 13.0685 111.447 13.6841 111.447C14.7961 111.447 15.7393 111.239 16.5137 110.822C17.3079 110.385 17.9136 109.859 18.3306 109.243C18.7476 108.628 18.9561 108.052 18.9561 107.516L21.1602 111.626C20.763 112.42 20.3063 113.224 19.79 114.039C19.2936 114.853 18.6681 115.607 17.9136 116.302C17.1789 116.977 16.2754 117.533 15.2031 117.97C14.1309 118.387 12.8302 118.596 11.3013 118.596C9.31559 118.596 7.48877 118.189 5.8208 117.375C4.17269 116.56 2.85221 115.429 1.85938 113.979C0.866536 112.51 0.370117 110.822 0.370117 108.916C0.370117 107.248 0.667969 105.758 1.26367 104.448C1.87923 103.137 2.80257 102.025 4.03369 101.112C5.26481 100.198 6.8335 99.5034 8.73975 99.0269C10.646 98.5503 12.8898 98.312 15.4712 98.312H19.79ZM45.3755 111.12L51.7197 85.7725H62.2935L51.7495 118H45.4946L45.3755 111.12ZM41.6226 85.7725L47.8774 111.12L47.8179 118H41.5332L31.019 85.7725H41.6226ZM80.4624 118.596C77.8413 118.596 75.4982 118.189 73.4331 117.375C71.368 116.541 69.6206 115.399 68.1909 113.949C66.7811 112.5 65.6989 110.832 64.9443 108.945C64.2096 107.059 63.8423 105.063 63.8423 102.958V101.827C63.8423 99.4637 64.1699 97.2795 64.8252 95.2739C65.4805 93.2485 66.4535 91.4813 67.7441 89.9722C69.0348 88.4631 70.6532 87.2915 72.5991 86.4575C74.5451 85.6037 76.8088 85.1768 79.3901 85.1768C81.6737 85.1768 83.7189 85.5441 85.5259 86.2788C87.3328 87.0135 88.8618 88.0659 90.1128 89.436C91.3836 90.8062 92.3467 92.4642 93.002 94.4102C93.6771 96.3561 94.0146 98.5404 94.0146 100.963V105.043H67.6846V98.7588H84.2153V97.9844C84.2352 96.9121 84.0465 95.9987 83.6494 95.2441C83.2721 94.4896 82.7161 93.9137 81.9814 93.5166C81.2467 93.1195 80.3532 92.9209 79.3008 92.9209C78.2087 92.9209 77.3052 93.1592 76.5903 93.6357C75.8953 94.1123 75.3493 94.7676 74.9521 95.6016C74.5749 96.4157 74.3068 97.3589 74.1479 98.4312C73.9891 99.5034 73.9097 100.635 73.9097 101.827V102.958C73.9097 104.15 74.0685 105.232 74.3862 106.205C74.7238 107.178 75.2004 108.012 75.8159 108.707C76.4513 109.382 77.2059 109.908 78.0796 110.286C78.9731 110.663 79.9858 110.852 81.1177 110.852C82.4878 110.852 83.8381 110.593 85.1685 110.077C86.4989 109.561 87.6406 108.707 88.5938 107.516L93.1509 112.937C92.4956 113.87 91.5623 114.773 90.3511 115.647C89.1597 116.521 87.73 117.236 86.062 117.792C84.394 118.328 82.5275 118.596 80.4624 118.596ZM111.707 110.852C112.64 110.852 113.435 110.683 114.09 110.345C114.765 109.988 115.271 109.491 115.609 108.856C115.966 108.201 116.135 107.416 116.115 106.503H125.557C125.577 108.925 124.981 111.05 123.77 112.877C122.579 114.684 120.95 116.094 118.885 117.106C116.84 118.099 114.527 118.596 111.945 118.596C109.424 118.596 107.219 118.189 105.333 117.375C103.447 116.541 101.868 115.389 100.597 113.919C99.3462 112.43 98.403 110.693 97.7676 108.707C97.152 106.721 96.8442 104.567 96.8442 102.244V101.559C96.8442 99.2354 97.152 97.0809 97.7676 95.0952C98.403 93.0897 99.3462 91.3522 100.597 89.8828C101.868 88.3936 103.437 87.2419 105.303 86.4277C107.19 85.5938 109.384 85.1768 111.886 85.1768C114.566 85.1768 116.929 85.6831 118.975 86.6958C121.04 87.7085 122.658 89.1779 123.83 91.104C125.001 93.0301 125.577 95.3633 125.557 98.1035H116.115C116.135 97.1305 115.986 96.2568 115.668 95.4824C115.351 94.708 114.854 94.0924 114.179 93.6357C113.524 93.1592 112.68 92.9209 111.647 92.9209C110.615 92.9209 109.781 93.1493 109.146 93.606C108.51 94.0627 108.024 94.6981 107.686 95.5122C107.368 96.3065 107.15 97.2199 107.031 98.2524C106.931 99.285 106.882 100.387 106.882 101.559V102.244C106.882 103.435 106.931 104.557 107.031 105.609C107.15 106.642 107.378 107.555 107.716 108.35C108.053 109.124 108.54 109.74 109.175 110.196C109.811 110.633 110.655 110.852 111.707 110.852Z" fill="black"/>
<path d="M196.922 74.6328V118H186.498L171.158 91.0146V118H160.704V74.6328H171.158L186.498 101.618V74.6328H196.922ZM201.807 102.214V101.588C201.807 99.2254 202.145 97.0511 202.82 95.0654C203.495 93.0599 204.488 91.3224 205.798 89.853C207.109 88.3836 208.727 87.2419 210.653 86.4277C212.579 85.5938 214.803 85.1768 217.325 85.1768C219.867 85.1768 222.101 85.5938 224.027 86.4277C225.973 87.2419 227.601 88.3836 228.912 89.853C230.222 91.3224 231.215 93.0599 231.89 95.0654C232.565 97.0511 232.903 99.2254 232.903 101.588V102.214C232.903 104.557 232.565 106.731 231.89 108.737C231.215 110.722 230.222 112.46 228.912 113.949C227.601 115.419 225.983 116.56 224.057 117.375C222.131 118.189 219.907 118.596 217.385 118.596C214.863 118.596 212.629 118.189 210.683 117.375C208.737 116.56 207.109 115.419 205.798 113.949C204.488 112.46 203.495 110.722 202.82 108.737C202.145 106.731 201.807 104.557 201.807 102.214ZM211.845 101.588V102.214C211.845 103.425 211.934 104.557 212.113 105.609C212.292 106.662 212.589 107.585 213.006 108.379C213.423 109.154 213.989 109.759 214.704 110.196C215.419 110.633 216.312 110.852 217.385 110.852C218.437 110.852 219.311 110.633 220.006 110.196C220.721 109.759 221.287 109.154 221.704 108.379C222.121 107.585 222.418 106.662 222.597 105.609C222.776 104.557 222.865 103.425 222.865 102.214V101.588C222.865 100.417 222.776 99.3148 222.597 98.2822C222.418 97.2298 222.121 96.3065 221.704 95.5122C221.287 94.6981 220.721 94.0627 220.006 93.606C219.291 93.1493 218.397 92.9209 217.325 92.9209C216.273 92.9209 215.389 93.1493 214.674 93.606C213.979 94.0627 213.423 94.6981 213.006 95.5122C212.589 96.3065 212.292 97.2298 212.113 98.2822C211.934 99.3148 211.845 100.417 211.845 101.588ZM247.498 93.7549V118H237.46V85.7725H246.842L247.498 93.7549ZM257.029 85.5342L256.85 94.8569C256.453 94.8172 255.917 94.7676 255.242 94.708C254.567 94.6484 254.001 94.6187 253.544 94.6187C252.372 94.6187 251.36 94.7576 250.506 95.0356C249.672 95.2938 248.977 95.6909 248.421 96.2271C247.885 96.7433 247.488 97.3986 247.229 98.1929C246.991 98.9871 246.882 99.9105 246.902 100.963L245.085 99.7715C245.085 97.6071 245.293 95.6413 245.71 93.874C246.147 92.0869 246.763 90.548 247.557 89.2573C248.351 87.9468 249.314 86.944 250.446 86.249C251.578 85.5342 252.849 85.1768 254.259 85.1768C254.755 85.1768 255.242 85.2065 255.718 85.2661C256.215 85.3257 256.652 85.415 257.029 85.5342ZM278.951 85.7725V92.7422H259.531V85.7725H278.951ZM263.611 77.7603H273.649V107.486C273.649 108.34 273.748 109.005 273.947 109.481C274.145 109.938 274.483 110.266 274.959 110.464C275.456 110.643 276.111 110.732 276.925 110.732C277.501 110.732 277.978 110.722 278.355 110.703C278.732 110.663 279.09 110.613 279.427 110.554V117.732C278.573 118.01 277.68 118.218 276.747 118.357C275.813 118.516 274.82 118.596 273.768 118.596C271.624 118.596 269.787 118.258 268.258 117.583C266.749 116.908 265.597 115.846 264.803 114.396C264.008 112.946 263.611 111.06 263.611 108.737V77.7603ZM292.771 72.25V118H282.733V72.25H292.771ZM291.58 100.784L289.227 100.844C289.227 98.5801 289.505 96.4951 290.061 94.5889C290.617 92.6826 291.411 91.0246 292.443 89.6147C293.476 88.2049 294.717 87.1128 296.167 86.3384C297.616 85.564 299.224 85.1768 300.992 85.1768C302.58 85.1768 304.03 85.4051 305.34 85.8618C306.671 86.3185 307.812 87.0532 308.766 88.0659C309.739 89.0786 310.483 90.3991 311 92.0273C311.536 93.6556 311.804 95.6413 311.804 97.9844V118H301.707V97.9248C301.707 96.6143 301.518 95.6016 301.141 94.8867C300.783 94.152 300.267 93.6457 299.592 93.3677C298.917 93.0698 298.093 92.9209 297.12 92.9209C295.948 92.9209 294.995 93.1195 294.26 93.5166C293.526 93.9137 292.96 94.4697 292.562 95.1846C292.185 95.8796 291.927 96.7036 291.788 97.6567C291.649 98.6099 291.58 99.6523 291.58 100.784ZM347.069 91.8486V99.8906H324.82V91.8486H347.069ZM328.305 74.6328V118H317.85V74.6328H328.305ZM354.099 74.6328V118H343.674V74.6328H354.099ZM359.013 102.214V101.588C359.013 99.2254 359.351 97.0511 360.026 95.0654C360.701 93.0599 361.694 91.3224 363.004 89.853C364.315 88.3836 365.933 87.2419 367.859 86.4277C369.785 85.5938 372.009 85.1768 374.531 85.1768C377.073 85.1768 379.307 85.5938 381.233 86.4277C383.179 87.2419 384.807 88.3836 386.118 89.853C387.428 91.3224 388.421 93.0599 389.096 95.0654C389.771 97.0511 390.109 99.2254 390.109 101.588V102.214C390.109 104.557 389.771 106.731 389.096 108.737C388.421 110.722 387.428 112.46 386.118 113.949C384.807 115.419 383.189 116.56 381.263 117.375C379.337 118.189 377.113 118.596 374.591 118.596C372.069 118.596 369.835 118.189 367.889 117.375C365.943 116.56 364.315 115.419 363.004 113.949C361.694 112.46 360.701 110.722 360.026 108.737C359.351 106.731 359.013 104.557 359.013 102.214ZM369.051 101.588V102.214C369.051 103.425 369.14 104.557 369.319 105.609C369.498 106.662 369.795 107.585 370.212 108.379C370.629 109.154 371.195 109.759 371.91 110.196C372.625 110.633 373.519 110.852 374.591 110.852C375.643 110.852 376.517 110.633 377.212 110.196C377.927 109.759 378.493 109.154 378.91 108.379C379.327 107.585 379.625 106.662 379.803 105.609C379.982 104.557 380.071 103.425 380.071 102.214V101.588C380.071 100.417 379.982 99.3148 379.803 98.2822C379.625 97.2298 379.327 96.3065 378.91 95.5122C378.493 94.6981 377.927 94.0627 377.212 93.606C376.497 93.1493 375.604 92.9209 374.531 92.9209C373.479 92.9209 372.595 93.1493 371.88 93.606C371.185 94.0627 370.629 94.6981 370.212 95.5122C369.795 96.3065 369.498 97.2298 369.319 98.2822C369.14 99.3148 369.051 100.417 369.051 101.588ZM411.465 108.945C411.465 108.389 411.276 107.913 410.899 107.516C410.542 107.099 409.906 106.721 408.993 106.384C408.079 106.026 406.799 105.669 405.15 105.312C403.582 104.974 402.102 104.527 400.712 103.971C399.342 103.415 398.141 102.74 397.108 101.946C396.076 101.152 395.262 100.208 394.666 99.1162C394.09 98.0241 393.802 96.7731 393.802 95.3633C393.802 93.9932 394.09 92.7025 394.666 91.4912C395.262 90.2601 396.125 89.1779 397.257 88.2446C398.409 87.2915 399.809 86.5469 401.457 86.0107C403.105 85.4548 404.982 85.1768 407.086 85.1768C409.986 85.1768 412.487 85.6235 414.592 86.5171C416.697 87.3908 418.315 88.6219 419.447 90.2104C420.599 91.7791 421.175 93.596 421.175 95.6611H411.137C411.137 94.847 410.998 94.152 410.72 93.5762C410.462 93.0003 410.035 92.5635 409.439 92.2656C408.844 91.9479 408.049 91.7891 407.057 91.7891C406.362 91.7891 405.726 91.9181 405.15 92.1763C404.594 92.4344 404.148 92.7918 403.81 93.2485C403.472 93.7052 403.304 94.2414 403.304 94.8569C403.304 95.2938 403.403 95.6909 403.602 96.0483C403.82 96.3859 404.148 96.7036 404.584 97.0015C405.021 97.2795 405.577 97.5376 406.252 97.7759C406.928 97.9943 407.742 98.1929 408.695 98.3716C410.859 98.7687 412.885 99.3346 414.771 100.069C416.657 100.804 418.186 101.847 419.358 103.197C420.549 104.547 421.145 106.364 421.145 108.647C421.145 110.077 420.817 111.398 420.162 112.609C419.507 113.8 418.564 114.853 417.333 115.766C416.101 116.66 414.622 117.355 412.895 117.851C411.167 118.347 409.221 118.596 407.057 118.596C403.979 118.596 401.378 118.05 399.253 116.958C397.128 115.846 395.52 114.456 394.428 112.788C393.355 111.1 392.819 109.392 392.819 107.665H402.172C402.212 108.657 402.45 109.472 402.887 110.107C403.343 110.742 403.949 111.209 404.704 111.507C405.458 111.805 406.332 111.954 407.325 111.954C408.238 111.954 408.993 111.825 409.588 111.566C410.204 111.308 410.671 110.961 410.988 110.524C411.306 110.067 411.465 109.541 411.465 108.945ZM442.829 85.7725V92.7422H423.409V85.7725H442.829ZM427.489 77.7603H437.527V107.486C437.527 108.34 437.626 109.005 437.825 109.481C438.023 109.938 438.361 110.266 438.837 110.464C439.334 110.643 439.989 110.732 440.803 110.732C441.379 110.732 441.856 110.722 442.233 110.703C442.61 110.663 442.968 110.613 443.305 110.554V117.732C442.451 118.01 441.558 118.218 440.625 118.357C439.691 118.516 438.698 118.596 437.646 118.596C435.501 118.596 433.665 118.258 432.136 117.583C430.627 116.908 429.475 115.846 428.681 114.396C427.886 112.946 427.489 111.06 427.489 108.737V77.7603ZM457.423 85.7725V118H447.356V85.7725H457.423ZM446.76 77.4624C446.76 76.0327 447.277 74.8612 448.309 73.9478C449.342 73.0343 450.682 72.5776 452.33 72.5776C453.978 72.5776 455.319 73.0343 456.351 73.9478C457.384 74.8612 457.9 76.0327 457.9 77.4624C457.9 78.8921 457.384 80.0636 456.351 80.9771C455.319 81.8905 453.978 82.3472 452.33 82.3472C450.682 82.3472 449.342 81.8905 448.309 80.9771C447.277 80.0636 446.76 78.8921 446.76 77.4624ZM473.478 92.6528V118H463.44V85.7725H472.852L473.478 92.6528ZM472.286 100.784L469.933 100.844C469.933 98.3815 470.231 96.1873 470.827 94.2612C471.422 92.3153 472.266 90.6672 473.358 89.3169C474.451 87.9666 475.751 86.944 477.26 86.249C478.789 85.5342 480.487 85.1768 482.354 85.1768C483.843 85.1768 485.203 85.3952 486.434 85.832C487.685 86.2689 488.757 86.9738 489.651 87.9468C490.564 88.9198 491.259 90.2104 491.736 91.8188C492.232 93.4074 492.48 95.3732 492.48 97.7163V118H482.383V97.6865C482.383 96.3958 482.205 95.4129 481.847 94.7378C481.49 94.0428 480.973 93.5662 480.298 93.3081C479.623 93.05 478.799 92.9209 477.826 92.9209C476.794 92.9209 475.92 93.1195 475.205 93.5166C474.49 93.9137 473.914 94.4697 473.478 95.1846C473.061 95.8796 472.753 96.7036 472.554 97.6567C472.375 98.6099 472.286 99.6523 472.286 100.784ZM518.304 85.7725H527.418V116.749C527.418 119.728 526.733 122.249 525.363 124.314C523.993 126.399 522.077 127.978 519.615 129.05C517.172 130.142 514.313 130.688 511.037 130.688C509.587 130.688 508.108 130.5 506.599 130.123C505.09 129.765 503.68 129.229 502.369 128.514C501.059 127.799 499.957 126.916 499.063 125.863L503.263 119.966C504.077 120.879 505.099 121.654 506.331 122.289C507.562 122.944 509.011 123.272 510.679 123.272C512.129 123.272 513.34 123.014 514.313 122.498C515.306 121.981 516.06 121.227 516.577 120.234C517.093 119.261 517.351 118.079 517.351 116.689V93.3975L518.304 85.7725ZM496.889 102.273V101.648C496.889 99.2056 497.187 96.9816 497.782 94.9761C498.398 92.9507 499.271 91.2132 500.403 89.7637C501.555 88.2943 502.945 87.1624 504.573 86.3682C506.201 85.5739 508.038 85.1768 510.083 85.1768C512.288 85.1768 514.095 85.6037 515.504 86.4575C516.934 87.2915 518.076 88.4631 518.93 89.9722C519.803 91.4813 520.479 93.2485 520.955 95.2739C521.451 97.2795 521.868 99.4438 522.206 101.767V102.512C521.868 104.696 521.402 106.761 520.806 108.707C520.23 110.633 519.476 112.341 518.542 113.83C517.609 115.319 516.438 116.491 515.028 117.345C513.638 118.179 511.97 118.596 510.024 118.596C507.999 118.596 506.172 118.189 504.543 117.375C502.935 116.56 501.555 115.419 500.403 113.949C499.271 112.48 498.398 110.752 497.782 108.767C497.187 106.781 496.889 104.617 496.889 102.273ZM506.926 101.648V102.273C506.926 103.485 507.035 104.607 507.254 105.639C507.492 106.672 507.85 107.585 508.326 108.379C508.803 109.154 509.389 109.759 510.083 110.196C510.798 110.633 511.632 110.852 512.585 110.852C514.035 110.852 515.207 110.544 516.1 109.928C516.994 109.313 517.639 108.439 518.036 107.307C518.433 106.175 518.602 104.845 518.542 103.316V100.963C518.582 99.6523 518.493 98.5007 518.274 97.5078C518.056 96.4951 517.708 95.6512 517.232 94.9761C516.775 94.3009 516.16 93.7946 515.385 93.457C514.631 93.0996 513.717 92.9209 512.645 92.9209C511.712 92.9209 510.888 93.1393 510.173 93.5762C509.458 94.013 508.862 94.6286 508.386 95.4229C507.909 96.1973 507.542 97.1206 507.284 98.1929C507.045 99.2453 506.926 100.397 506.926 101.648Z" fill="url(#paint0_linear_13_3)"/>
<defs>
<linearGradient id="paint0_linear_13_3" x1="164.128" y1="52.3565" x2="637.592" y2="99.1751" gradientUnits="userSpaceOnUse">
<stop stop-color="#0000B8"/>
<stop offset="1" stop-color="#BF00FF"/>
</linearGradient>
</defs>
</svg>
